<svg id="Layer_1" data-name="Layer 1" xmlns="http://www.w3.org/2000/svg" viewBox="0 0 197.55 179"><defs><style>.cls-1,.cls-5,.cls-7{fill:none;}.cls-1{stroke:#8fc03a;stroke-width:3px;}.cls-1,.cls-4,.cls-5,.cls-7{stroke-miterlimit:10;}.cls-2{fill:#ebb156;}.cls-3{fill:#fff;}.cls-4,.cls-6{fill:#666;}.cls-4,.cls-5,.cls-7{stroke:#666;}.cls-7{stroke-linecap:round;}.cls-8{fill:#646463;}.cls-9{fill:#636363;}.cls-10{fill:#537128;}</style></defs><title>logo final</title><g id="logo"><path class="cls-1" d="M186.19,90" transform="translate(-8.1 -11.23)"/><path class="cls-1" d="M33.46,73.24A77.3,77.3,0,0,1,184.31,73c.11.47.94,4.79,1.17,6.5" transform="translate(-8.1 -11.23)"/><path class="cls-1" d="M183.06,112A77.34,77.34,0,0,1,34.8,112" transform="translate(-8.1 -11.23)"/><g id="yellow_dots" data-name="yellow dots"><circle class="cls-2" cx="79.15" cy="18.77" r="4.5"/><circle class="cls-2" cx="101.19" cy="13.4" r="4.5"/><circle class="cls-2" cx="123.23" cy="18.77" r="4.5"/><ellipse class="cls-3" cx="79.15" cy="20.21" rx="2.25" ry="1.06"/><circle class="cls-3" cx="77.76" cy="16.79" r="0.6"/><ellipse class="cls-3" cx="101.38" cy="15.02" rx="2.25" ry="1.06"/><circle class="cls-3" cx="99.82" cy="11.48" r="0.6"/><ellipse class="cls-3" cx="123.23" cy="20.25" rx="2.25" ry="1.06"/><circle class="cls-3" cx="121.4" cy="16.57" r="0.6"/></g><g id="fish"><path class="cls-4" d="M202.64,100.39h0L190,100a.28.28,0,0,1-.13-.53l10-4.86-1.44,1.3a.31.31,0,0,0,.19.54l6.26.48a.31.31,0,0,1,.24.48A13.07,13.07,0,0,1,202.64,100.39Z" transform="translate(-8.1 -11.23)"/><path class="cls-5" d="M144,122.25l0,0s0,0,0,0Z" transform="translate(-8.1 -11.23)"/><path class="cls-5" d="M118.88,117.58s28.87-1.08,28.87,0c0,.9-2.94,3.85-3.69,4.58,1.27-.94,13.13-4.12,17.06-6.2s17.38-4.88,28.76-8.25a29.65,29.65,0,0,0,12.75-7.36L190,100a.28.28,0,0,1-.13-.53L200.14,94A9,9,0,0,0,202,92.72l1.42-1.28a.43.43,0,0,0,0-.63c-11-9.46-32.57-11-34.9-11.31-2.68-.37-40.38.12-43.38.12S85,81.25,77.75,83,54,86.38,50.88,83.75C48,81.36,16.22,69.87,10.5,67.81a.47.47,0,0,0-.6.58c1,3.23,4.78,14.44,8,18.49,3.59,4.55,1.67,8.65,1.52,9h0c-.07.09-.76,1.09-5.77,8.25-6.37,9.13-4.87,14.76-4.87,14.76,8.5-.5,22.75-7.26,25.25-8.63A197.44,197.44,0,0,1,56.88,101c6.74-2,33.24,10.75,41.24,13.25l6.69,1.58" transform="translate(-8.1 -11.23)"/><path class="cls-6" d="M72.5,101.46c6.15.59,12.23,1.67,18.3,2.7s12.12,2.19,18.18,3.14a91.32,91.32,0,0,0,9.1.91c3.07.21,6.14.34,9.21.5q9.22.41,18.46.91-9.24.5-18.5.42A139,139,0,0,1,108.72,109c-6.12-1-12.15-2.23-18.18-3.52l-9-2C78.52,102.76,75.52,102.07,72.5,101.46Z" transform="translate(-8.1 -11.23)"/><path class="cls-6" d="M170.88,85.27a50.27,50.27,0,0,0-3.12,7.16,16.32,16.32,0,0,0-.81,7.35,13.1,13.1,0,0,0,3.05,6.6,33.17,33.17,0,0,0,5.79,5.17,18.6,18.6,0,0,1-6.89-4.15,12.77,12.77,0,0,1-3.86-7.35,15,15,0,0,1,1.31-8.15A23.29,23.29,0,0,1,170.88,85.27Z" transform="translate(-8.1 -11.23)"/><path class="cls-7" d="M201,101.9s-9.2,0-12.24-.44-4-1.08-2-3,8.13-5.53,8.13-5.53" transform="translate(-8.1 -11.23)"/><path class="cls-6" d="M179.07,91.83a34,34,0,0,0,.73,4.37,8.06,8.06,0,0,0,.83,2,12.54,12.54,0,0,1,.92,2.14c.23.77.35,1.5.51,2.27a5.58,5.58,0,0,1,0,2.54,2.1,2.1,0,0,1-1,1.31,2.77,2.77,0,0,1-1.54.2,18.14,18.14,0,0,1-2.31-.58,8.29,8.29,0,0,1-4-2.7,8.12,8.12,0,0,1-1.51-4.59V97.56l.08-1.13c.07-.76.14-1.51.27-2.27a10.82,10.82,0,0,1,1.5-4.34.15.15,0,0,1,.21,0,.15.15,0,0,1,.06.19l0,0a8.37,8.37,0,0,0-.54,2.08,20.05,20.05,0,0,0-.22,2.19,33.38,33.38,0,0,0,0,4.36,7.11,7.11,0,0,0,1.38,3.75,6.73,6.73,0,0,0,3.33,2.16,20.19,20.19,0,0,0,2,.52,1.32,1.32,0,0,0,.66,0,.57.57,0,0,0,.32-.38,8.57,8.57,0,0,0-.31-4,18.69,18.69,0,0,0-.77-2c-.14-.35-.29-.66-.42-1.08a8.19,8.19,0,0,1-.26-1.17,17.32,17.32,0,0,1,0-4.55.07.07,0,0,1,.14,0Z" transform="translate(-8.1 -11.23)"/><circle class="cls-6" cx="180.59" cy="78.93" r="2.23"/><path class="cls-6" d="M184,91.46c.68.19,1.33.39,2,.62a11.24,11.24,0,0,0,1.85.56,7.25,7.25,0,0,0,1.91-.06c.66-.09,1.33-.21,2-.33a5.93,5.93,0,0,1-4,1.21,6.21,6.21,0,0,1-2-.79A9.28,9.28,0,0,1,184,91.46Z" transform="translate(-8.1 -11.23)"/><path class="cls-6" d="M180.7,88.28A25.67,25.67,0,0,0,182,85.14c.39-1.07.76-2.15,1.11-3.23l1.44.62c-.57,1-1.15,2-1.75,3a26.38,26.38,0,0,1-1.94,2.88Z" transform="translate(-8.1 -11.23)"/><path class="cls-6" d="M166.12,109.42a31.84,31.84,0,0,1-3.38,4.54,24.07,24.07,0,0,1-2,2,12.06,12.06,0,0,1-2.36,1.73l-.48-.88a15.61,15.61,0,0,0,2.18-1.6c.7-.59,1.4-1.21,2.06-1.86C163.49,112.11,164.78,110.75,166.12,109.42Z" transform="translate(-8.1 -11.23)"/><path class="cls-6" d="M163.25,106.63a45.17,45.17,0,0,0-5.24.4,9,9,0,0,0-2.43.83,9.84,9.84,0,0,0-2.06,1.51,39.31,39.31,0,0,0-3.27,4.07c-1,1.41-2.09,2.84-3.06,4.27l-1.12-.79c1.1-1.43,2.23-2.77,3.37-4.13a44.28,44.28,0,0,1,3.6-4,10.14,10.14,0,0,1,2.3-1.48,9.51,9.51,0,0,1,2.6-.73,42.85,42.85,0,0,1,5.31-.09Z" transform="translate(-8.1 -11.23)"/><path class="cls-6" d="M162.43,109.7c-1.45.22-2.91.29-4.33.59a11.84,11.84,0,0,0-4,1.6,15.38,15.38,0,0,0-1.76,1.27l-1.73,1.33-3.44,2.67-.48-.59,3.56-2.56,1.78-1.28a17.72,17.72,0,0,1,1.83-1.23,12.44,12.44,0,0,1,4.16-1.5c1.45-.26,2.91-.27,4.36-.45Z" transform="translate(-8.1 -11.23)"/><path class="cls-6" d="M157.94,113.39a24.63,24.63,0,0,1-2.47,1.46c-.84.46-1.69.89-2.55,1.32q-2.56,1.27-5.18,2.48l-.38-.93q2.69-1,5.34-2a47.65,47.65,0,0,0,5.19-2.36Z" transform="translate(-8.1 -11.23)"/><path class="cls-6" d="M110.67,111.55c-1,0-1.94,0-2.9,0a10.38,10.38,0,0,0-2.76.4c-.06,0-.2.1-.17.12s0,0,0,0v.11a3.61,3.61,0,0,0,0,.65c0,.47.11.94.19,1.4.17.94.38,1.87.62,2.79a36.31,36.31,0,0,0,1.85,5.38,14.65,14.65,0,0,0,3,4.58,4.22,4.22,0,0,0,.93.69,1.12,1.12,0,0,0,.84,0,5.11,5.11,0,0,0,1.81-1.69,29.31,29.31,0,0,0,2.76-4.92c1.59-3.47,3-7.08,4.34-10.72A62.05,62.05,0,0,1,118,121.58a25.77,25.77,0,0,1-2.73,5.29,6.33,6.33,0,0,1-2.41,2.21,2.51,2.51,0,0,1-2,0,5.1,5.1,0,0,1-1.41-1,14.83,14.83,0,0,1-3.23-5.13,30.69,30.69,0,0,1-1.67-5.67,28.39,28.39,0,0,1-.45-2.91c0-.49-.08-1-.09-1.49a5.5,5.5,0,0,1,0-.79,1.4,1.4,0,0,1,.06-.24.75.75,0,0,1,.2-.28,1.21,1.21,0,0,1,.45-.25,10.22,10.22,0,0,1,3-.14C108.74,111.29,109.71,111.4,110.67,111.55Z" transform="translate(-8.1 -11.23)"/><path class="cls-6" d="M117.47,80.24c-2.24-2-4.43-4-6.63-6-1.11-1-2.21-2-3.33-2.95a23.36,23.36,0,0,0-3.45-2.57,1.86,1.86,0,0,0-.36-.15s-.12,0,0,0l.06,0a0,0,0,0,1,0,0,3.84,3.84,0,0,0-.67.56c-.48.5-1,1.07-1.42,1.63-.94,1.14-1.83,2.33-2.71,3.53-1.74,2.41-3.48,4.84-5.16,7.3L92.91,81c1.58-2.55,3.16-5.09,4.88-7.56.86-1.24,1.72-2.46,2.65-3.67A22.35,22.35,0,0,1,102,68a4.74,4.74,0,0,1,1.06-.87,1.21,1.21,0,0,1,.57-.15,1.48,1.48,0,0,1,.52.06,2.92,2.92,0,0,1,.66.27,23.17,23.17,0,0,1,3.78,2.73q1.74,1.46,3.37,3a84.94,84.94,0,0,1,6.27,6.46Z" transform="translate(-8.1 -11.23)"/><path class="cls-6" d="M73.91,84.15c-1.58-.88-3.2-1.73-4.84-2.5a31.17,31.17,0,0,0-5-1.94,7.63,7.63,0,0,0-2.44-.29,2.2,2.2,0,0,0-.49.12,1.48,1.48,0,0,0-.43.26,6,6,0,0,0-.92.83,10,10,0,0,0-2.32,4.52l-1-.13a9.86,9.86,0,0,1,2.28-5.32,7.18,7.18,0,0,1,1.1-1,3.14,3.14,0,0,1,.74-.45,3.76,3.76,0,0,1,.84-.23,8,8,0,0,1,3,.32,27.81,27.81,0,0,1,5.21,2.14,47.07,47.07,0,0,1,4.78,2.85Z" transform="translate(-8.1 -11.23)"/><path class="cls-6" d="M81.92,108.05c-2.37,2.65-4.76,5.26-7.24,7.81-1.24,1.27-2.49,2.54-3.85,3.74-.34.3-.69.6-1.06.88-.19.15-.39.29-.6.43a3,3,0,0,1-.88.39,1.33,1.33,0,0,1-.76-.07,1.51,1.51,0,0,1-.61-.4,2.32,2.32,0,0,1-.33-.53c0-.15-.1-.32-.14-.47a5.74,5.74,0,0,1,0-1.53c0-.92.19-1.79.22-2.61a4,4,0,0,0-.08-1.08,4.66,4.66,0,0,0-.49-1,45.1,45.1,0,0,0-2.93-4.33,25.35,25.35,0,0,0-1.64-2l-.2-.2a1.12,1.12,0,0,1-.37-.47,1.33,1.33,0,0,1,.14-1,4.88,4.88,0,0,1,.87-1.18,10.74,10.74,0,0,1,2.16-1.76,7.33,7.33,0,0,1,1.29-.62,2.74,2.74,0,0,1,1.6-.11l-.3,1a3,3,0,0,0-2.11.58A8.71,8.71,0,0,0,62.62,105a4.2,4.2,0,0,0-.69,1c-.08.15-.08.32-.09.26-.17-.2.23.15.35.27a24.58,24.58,0,0,1,1.84,2,53.79,53.79,0,0,1,3.25,4.3,6.52,6.52,0,0,1,.71,1.33,5.42,5.42,0,0,1,.21,1.54c0,1-.07,1.85-.11,2.69a6.7,6.7,0,0,0,0,1.12.53.53,0,0,1,0,.17,0,0,0,0,1,0,0s-.06,0-.06,0,0,0,0,0-.07,0-.1,0a2,2,0,0,0,.32-.16,4.78,4.78,0,0,0,.5-.33c.34-.23.67-.5,1-.77,1.33-1.11,2.62-2.31,3.89-3.53,2.54-2.44,5-5,7.47-7.51Z" transform="translate(-8.1 -11.23)"/><path class="cls-6" d="M75.44,110.25q-1.84,1.57-3.77,3a35.64,35.64,0,0,1-4,2.71l-.58-.88a36.53,36.53,0,0,1,4.06-2.57Q73.26,111.32,75.44,110.25Z" transform="translate(-8.1 -11.23)"/><path class="cls-6" d="M72.54,108.63c-1,.78-2.07,1.46-3.14,2.14a35.14,35.14,0,0,1-3.27,1.85l-.69-1.35c1.11-.59,2.28-1.06,3.44-1.54s2.36-.9,3.58-1.25Z" transform="translate(-8.1 -11.23)"/><path class="cls-6" d="M67.19,106.23a13.22,13.22,0,0,1-1.85,1.52,15.2,15.2,0,0,1-2,1.21l-.6-1.14a16.44,16.44,0,0,1,2.14-1A13.31,13.31,0,0,1,67.19,106.23Z" transform="translate(-8.1 -11.23)"/><path class="cls-6" d="M113.83,115a10.73,10.73,0,0,1-1.51,1.92A17.87,17.87,0,0,1,108.5,120a9.31,9.31,0,0,1-2.26.94l-.43-.9a43.64,43.64,0,0,1,4-2.4,30.76,30.76,0,0,0,3.9-2.69Z" transform="translate(-8.1 -11.23)"/><path class="cls-6" d="M108.75,126.34a33.14,33.14,0,0,1,3.07-4c.53-.65,1.05-1.31,1.55-2a11.55,11.55,0,0,0,1.3-2.17,7.78,7.78,0,0,1-.77,2.48,20.8,20.8,0,0,1-1.21,2.29,15.6,15.6,0,0,1-3.19,4Z" transform="translate(-8.1 -11.23)"/><path class="cls-6" d="M177.17,86.84a1.34,1.34,0,0,0,0-2.68,1.34,1.34,0,0,0,0,2.68Z" transform="translate(-8.1 -11.23)"/><path class="cls-6" d="M155.5,87.94a1.44,1.44,0,0,0,0-2.88,1.44,1.44,0,0,0,0,2.88Z" transform="translate(-8.1 -11.23)"/><path class="cls-6" d="M154.07,92.31l-.13.06a1.12,1.12,0,0,0,0,1.93l.13.06a1.19,1.19,0,1,0,0-2Z" transform="translate(-8.1 -11.23)"/><path class="cls-6" d="M145.28,92.17l0,.16a1,1,0,0,0,2.07,0l0-.16a1.06,1.06,0,1,0-2.11,0Z" transform="translate(-8.1 -11.23)"/><path class="cls-6" d="M141.83,87.61a1.11,1.11,0,0,0,0-2.22,1.11,1.11,0,0,0,0,2.22Z" transform="translate(-8.1 -11.23)"/><path class="cls-6" d="M68.69,96.94a79.9,79.9,0,0,0-8.58,1.56,39.5,39.5,0,0,0-8.17,2.68l-7.6,4.24c-2.56,1.4-5.12,2.79-7.71,4.11l-.49-.87c2.5-1.5,5-2.93,7.59-4.35s5.07-2.82,7.71-4.17a26.61,26.61,0,0,1,4.22-1.44,42.8,42.8,0,0,1,4.3-.93A52.24,52.24,0,0,1,68.69,96.94Z" transform="translate(-8.1 -11.23)"/><path class="cls-6" d="M33.5,83.12c-1.79-.5-3.57-1-5.35-1.55S24.6,80.51,22.83,80l-5.3-1.68a38.9,38.9,0,0,1-5.2-2l.33-1A39.4,39.4,0,0,1,18,77l5.19,2c1.74.65,3.46,1.36,5.19,2S31.79,82.41,33.5,83.12Z" transform="translate(-8.1 -11.23)"/><path class="cls-6" d="M28.18,87.66c-1.85.09-3.72.18-5.59.1a27.15,27.15,0,0,1-2.82-.21,10.64,10.64,0,0,1-1.42-.31,4.73,4.73,0,0,1-.73-.28l-.37-.22a2.23,2.23,0,0,1-.39-.42l.85-.52a.22.22,0,0,1,.12,0l.25.1.58.17c.42.1.86.18,1.3.27.89.15,1.8.31,2.71.43l2.75.37c.92.12,1.85.24,2.77.4Z" transform="translate(-8.1 -11.23)"/><path class="cls-6" d="M28.88,94.75c-.95.2-1.89.36-2.79.63a27.9,27.9,0,0,0-2.64,1,29.36,29.36,0,0,1-5.33,2l-.36-.93a12.55,12.55,0,0,1,2.62-1.17c.9-.29,1.81-.6,2.75-.87A18,18,0,0,1,26,94.83,18.77,18.77,0,0,1,28.88,94.75Z" transform="translate(-8.1 -11.23)"/><path class="cls-6" d="M32.26,99.07c-3.23.47-6.5.72-9.46,1.83a18,18,0,0,0-2.15,1c-.73.37-1.48.72-2.23,1a34.22,34.22,0,0,1-4.65,1.65l-.29-.95c1.49-.57,3-1.16,4.47-1.79.74-.31,1.48-.63,2.2-1a15.41,15.41,0,0,1,2.32-.94,21.12,21.12,0,0,1,4.88-.87c1.64-.14,3.27-.1,4.89-.14Z" transform="translate(-8.1 -11.23)"/><path class="cls-6" d="M32.88,101.56c-1.94.66-3.87,1.35-5.78,2s-3.78,1.5-5.59,2.37a90.4,90.4,0,0,1-11.21,5L9.89,110A88.92,88.92,0,0,1,21,104.87a45.93,45.93,0,0,1,5.87-2C28.85,102.37,30.86,101.93,32.88,101.56Z" transform="translate(-8.1 -11.23)"/><path class="cls-6" d="M33.25,105.54c-2,.73-4,1.57-6.05,2.34l-6,2.42c-2,.8-4,1.61-5.94,2.52A31.7,31.7,0,0,1,9,114.87l-.3-1c2-.88,4-1.65,5.93-2.47s4.07-1.53,6.12-2.24,4.11-1.35,6.18-2S31.13,106,33.25,105.54Z" transform="translate(-8.1 -11.23)"/><path class="cls-6" d="M36.37,88c1.53-.25,3.06-.39,4.59-.55l4.59-.48c1.52-.18,3.05-.38,4.53-.69a7.35,7.35,0,0,0,2.06-.69l2-1.11.46.89-2.07,1a8.65,8.65,0,0,1-2.32.68c-1.55.25-3.09.38-4.62.5L41,87.82c-1.53.1-3.07.17-4.59.36Z" transform="translate(-8.1 -11.23)"/><path class="cls-6" d="M104.06,73.25a25.06,25.06,0,0,1,4.28,3A22.91,22.91,0,0,1,112,79.82l-.69.72a27.8,27.8,0,0,1-3.8-3.47C106.35,75.83,105.23,74.54,104.06,73.25Z" transform="translate(-8.1 -11.23)"/><path class="cls-6" d="M102.88,75.69c1,.63,1.91,1.3,2.81,2A13.92,13.92,0,0,1,108.22,80l-.69.73a13.58,13.58,0,0,1-2.47-2.38A33.09,33.09,0,0,1,102.88,75.69Z" transform="translate(-8.1 -11.23)"/><path class="cls-6" d="M100.25,77.75a15.5,15.5,0,0,1,1.83,1.13,5.55,5.55,0,0,1,1.57,1.4L103,81a5.56,5.56,0,0,1-1.49-1.49A15.78,15.78,0,0,1,100.25,77.75Z" transform="translate(-8.1 -11.23)"/><path class="cls-6" d="M112.88,89.12a1.25,1.25,0,0,0,0-2.49,1.25,1.25,0,0,0,0,2.49Z" transform="translate(-8.1 -11.23)"/><path class="cls-6" d="M102.5,86.92a1.36,1.36,0,0,0,0-2.72,1.36,1.36,0,0,0,0,2.72Z" transform="translate(-8.1 -11.23)"/><path class="cls-6" d="M88.69,93.41a1.48,1.48,0,1,0-1.48-1.47,1.5,1.5,0,0,0,1.48,1.47Z" transform="translate(-8.1 -11.23)"/><path class="cls-6" d="M77.19,91.65a1.92,1.92,0,0,0,1.9-1.9,1.91,1.91,0,1,0-1.9,1.9Z" transform="translate(-8.1 -11.23)"/><path class="cls-6" d="M82,97.52a2.08,2.08,0,0,0-1,0c-.06,0-.26,0-.29.06.38,0,.43,0,.12,0l-.33,0A1.51,1.51,0,0,0,79,99.39a1.53,1.53,0,0,0,2.2.9,8,8,0,0,0,1.28-1A1.1,1.1,0,0,0,82,97.52Z" transform="translate(-8.1 -11.23)"/><path class="cls-6" d="M124.5,92.31a.88.88,0,0,0,0-1.75.88.88,0,0,0,0,1.75Z" transform="translate(-8.1 -11.23)"/><path class="cls-6" d="M59.68,84.56l.46,0c.09,0,.23,0,.19,0a.63.63,0,0,0,.63.16.47.47,0,0,0,.15-.06.66.66,0,0,0,.13-1,1.59,1.59,0,0,0-1.56-.25c-.54.1-.56,1,0,1.12Z" transform="translate(-8.1 -11.23)"/><path class="cls-6" d="M63.94,82.08c.36-.77-.31-1.8-.8-2.38s-1.68-1.59-2.44-1.27a.51.51,0,0,0-.31.74c.21.35.54.41.88.59a4.93,4.93,0,0,1,.94.62,3.41,3.41,0,0,1,.77.84,7.18,7.18,0,0,0,.46.92.31.31,0,0,0,.5-.06Z" transform="translate(-8.1 -11.23)"/><path class="cls-6" d="M71.32,83.75a5,5,0,0,1-1.71-2c-.36-.64-.7-1.52-1.53-1.6a.54.54,0,0,0-.52.68,3.8,3.8,0,0,0,.5.93c.27.44.5.9.78,1.32a3.2,3.2,0,0,0,2.21,1.71c.54.05.69-.74.27-1Z" transform="translate(-8.1 -11.23)"/><path class="cls-6" d="M44.5,101.41a1.66,1.66,0,0,0,0-3.32,1.66,1.66,0,0,0,0,3.32Z" transform="translate(-8.1 -11.23)"/><path class="cls-6" d="M53.75,92.18a1.18,1.18,0,0,0,0-2.36,1.18,1.18,0,0,0,0,2.36Z" transform="translate(-8.1 -11.23)"/></g><path class="cls-8" d="M88.55,45.9H85v3.55h4v1.06H83.79V40.67h5v1.07H85v3.11h3.58Z" transform="translate(-8.1 -11.23)"/><path class="cls-8" d="M90.33,49a4,4,0,0,0,2.13.64,1.69,1.69,0,0,0,1.92-1.68c0-.92-.49-1.45-1.73-2-1.5-.57-2.43-1.4-2.43-2.79a2.72,2.72,0,0,1,3-2.67,4,4,0,0,1,2,.48l-.33,1a3.52,3.52,0,0,0-1.75-.47A1.53,1.53,0,0,0,91.42,43c0,.92.56,1.37,1.83,1.9,1.55.64,2.35,1.44,2.35,2.89s-1,2.83-3.22,2.83A4.51,4.51,0,0,1,90,50Z" transform="translate(-8.1 -11.23)"/><path class="cls-8" d="M99,41.75H96.17V40.67H103v1.08h-2.81v8.76H99Z" transform="translate(-8.1 -11.23)"/><path class="cls-8" d="M102.85,49.76a.83.83,0,0,1,.82-.92.93.93,0,0,1,0,1.84A.84.84,0,0,1,102.85,49.76Z" transform="translate(-8.1 -11.23)"/><path class="cls-8" d="M111.07,42.22h0l-1.54.89-.23-1L111.21,41h1v9.49h-1.16Z" transform="translate(-8.1 -11.23)"/><path class="cls-8" d="M116.15,49.61a4.87,4.87,0,0,0,1,0,3.32,3.32,0,0,0,1.86-.92,4.32,4.32,0,0,0,1.17-2.53h0a2.54,2.54,0,0,1-2.09,1,2.67,2.67,0,0,1-2.62-2.9,3.17,3.17,0,0,1,3-3.38c1.82,0,2.93,1.58,2.93,4a6.27,6.27,0,0,1-1.52,4.46,4.4,4.4,0,0,1-2.58,1.27,5.09,5.09,0,0,1-1.11.07Zm.44-5.46a1.78,1.78,0,0,0,1.71,2,1.94,1.94,0,0,0,1.74-1,.88.88,0,0,0,.11-.47c0-1.62-.56-2.86-1.81-2.86C117.31,41.84,116.59,42.8,116.59,44.15Z" transform="translate(-8.1 -11.23)"/><path class="cls-8" d="M122.34,48.1a2.71,2.71,0,0,1,1.76-2.54v0a2.36,2.36,0,0,1-1.41-2.13,2.55,2.55,0,0,1,2.75-2.53A2.35,2.35,0,0,1,128,43.2a2.41,2.41,0,0,1-1.46,2.22v0a2.61,2.61,0,0,1,1.79,2.46,2.8,2.8,0,0,1-3,2.76A2.69,2.69,0,0,1,122.34,48.1Zm4.78-.05c0-1.16-.75-1.71-2-2.08a2,2,0,0,0-1.6,2,1.7,1.7,0,0,0,1.77,1.81A1.65,1.65,0,0,0,127.12,48.05Zm-3.3-4.75c0,1,.67,1.46,1.69,1.75a1.84,1.84,0,0,0,1.35-1.72,1.43,1.43,0,0,0-1.5-1.55A1.45,1.45,0,0,0,123.82,43.3Z" transform="translate(-8.1 -11.23)"/><path class="cls-8" d="M134.51,41.93a3.66,3.66,0,0,0-.9.06,3.76,3.76,0,0,0-3.09,3.37h0a2.58,2.58,0,0,1,2.14-1.1c1.57,0,2.67,1.22,2.67,3.07a3.09,3.09,0,0,1-2.95,3.35c-1.89,0-3.13-1.58-3.13-4a6.18,6.18,0,0,1,1.5-4.28,4.72,4.72,0,0,1,2.83-1.4,5.26,5.26,0,0,1,.88-.07Zm-.34,5.47c0-1.35-.73-2.17-1.83-2.17a2,2,0,0,0-1.72,1.17,1.14,1.14,0,0,0-.14.57c0,1.56.7,2.71,2,2.71C133.47,49.68,134.17,48.76,134.17,47.4Z" transform="translate(-8.1 -11.23)"/><path class="cls-8" d="M78.38,143.62l-.77,2.7h-1l2.53-8.58h1.17l2.54,8.58h-1l-.8-2.7Zm2.44-.87-.73-2.46c-.16-.56-.27-1.07-.38-1.57h0c-.12.51-.24,1-.38,1.55l-.73,2.48Z" transform="translate(-8.1 -11.23)"/><path class="cls-8" d="M84,146.32v-8.58h1l2.39,4.34a27.73,27.73,0,0,1,1.34,2.79l0,0c-.09-1.14-.11-2.18-.11-3.52v-3.59h.9v8.58h-1L86.2,142a30,30,0,0,1-1.39-2.87l0,0c0,1.08.07,2.11.07,3.53v3.67Z" transform="translate(-8.1 -11.23)"/><path class="cls-8" d="M96.9,145.94a6.3,6.3,0,0,1-2.29.47,3.52,3.52,0,0,1-2.78-1.14,4.73,4.73,0,0,1-1-3.19c0-2.56,1.53-4.43,4-4.43a4,4,0,0,1,1.86.4l-.23.9a3.5,3.5,0,0,0-1.65-.37c-1.81,0-3,1.3-3,3.45s1.14,3.46,2.88,3.46a2.72,2.72,0,0,0,1.28-.23V142.7H94.45v-.89H96.9Z" transform="translate(-8.1 -11.23)"/><path class="cls-8" d="M98.38,137.74h1v7.65h3.19v.93H98.38Z" transform="translate(-8.1 -11.23)"/><path class="cls-8" d="M107.46,142.3h-2.9v3.09h3.23v.93H103.6v-8.58h4v.93h-3.07v2.71h2.9Z" transform="translate(-8.1 -11.23)"/><path class="cls-8" d="M109.05,137.86a8.31,8.31,0,0,1,1.84-.18,2.76,2.76,0,0,1,2.16.7,2.27,2.27,0,0,1,.59,1.63,2.24,2.24,0,0,1-1.41,2.19v0a2.13,2.13,0,0,1,1.1,1.73,15.65,15.65,0,0,0,.57,2.36h-1a12.44,12.44,0,0,1-.5-2c-.22-1.18-.62-1.63-1.49-1.67H110v3.72h-1Zm1,3.9h1a1.55,1.55,0,0,0,1.68-1.63c0-1.1-.69-1.59-1.71-1.6a3.51,3.51,0,0,0-.95.1Z" transform="translate(-8.1 -11.23)"/><path class="cls-8" d="M114.87,145a3.12,3.12,0,0,0,1.72.56,1.41,1.41,0,0,0,1.56-1.46c0-.81-.4-1.26-1.4-1.71-1.22-.5-2-1.22-2-2.43a2.27,2.27,0,0,1,2.41-2.33,3,3,0,0,1,1.65.42l-.27.9a2.69,2.69,0,0,0-1.41-.4,1.28,1.28,0,0,0-1.41,1.28c0,.8.46,1.2,1.48,1.66a2.59,2.59,0,0,1,1.91,2.52,2.38,2.38,0,0,1-2.61,2.47,3.54,3.54,0,0,1-1.91-.55Z" transform="translate(-8.1 -11.23)"/><path class="cls-8" d="M120.19,145.66a.72.72,0,0,1,.66-.81c.39,0,.66.34.66.81a.67.67,0,1,1-1.32,0Z" transform="translate(-8.1 -11.23)"/><path class="cls-8" d="M129.12,141.94c0,2.95-1.56,4.52-3.46,4.52s-3.36-1.76-3.36-4.35,1.48-4.51,3.47-4.51S129.12,139.4,129.12,141.94Zm-5.79.14c0,1.83.87,3.47,2.38,3.47s2.39-1.61,2.39-3.56c0-1.7-.77-3.49-2.38-3.49S123.33,140.2,123.33,142.08Z" transform="translate(-8.1 -11.23)"/><path class="cls-8" d="M130.37,137.86a8.47,8.47,0,0,1,1.85-.18,2.77,2.77,0,0,1,2.16.7A2.31,2.31,0,0,1,135,140a2.25,2.25,0,0,1-1.4,2.19v0a2.12,2.12,0,0,1,1.09,1.73,15.23,15.23,0,0,0,.58,2.36h-1a12.44,12.44,0,0,1-.5-2c-.22-1.18-.61-1.63-1.49-1.67h-.91v3.72h-1Zm1,3.9h1a1.55,1.55,0,0,0,1.68-1.63,1.51,1.51,0,0,0-1.71-1.6,3.6,3.6,0,0,0-1,.1Z" transform="translate(-8.1 -11.23)"/><path class="cls-8" d="M142,145.94a6.3,6.3,0,0,1-2.29.47,3.52,3.52,0,0,1-2.78-1.14,4.73,4.73,0,0,1-1-3.19c0-2.56,1.53-4.43,4-4.43a4,4,0,0,1,1.86.4l-.23.9a3.5,3.5,0,0,0-1.65-.37c-1.81,0-3,1.3-3,3.45s1.14,3.46,2.88,3.46a2.72,2.72,0,0,0,1.28-.23V142.7h-1.51v-.89H142Z" transform="translate(-8.1 -11.23)"/><path class="cls-9" d="M28.5,124.91l-1.6-2.51,1.37-.86c1.52,2.4,2.29,3.6,3.87,6l-1.3,1c-.66-1-1-1.51-1.64-2.51l-10.76,7.46-.79-1.2Z" transform="translate(-8.1 -11.23)"/><path class="cls-9" d="M33.43,129.46l-4.88,3.76c1.11,1.64,1.68,2.46,2.81,4.08l4.7-4,.73,1L25.67,144l-.84-1.16,5.27-4.46c-1.16-1.64-1.73-2.47-2.86-4.13l-5.46,4.21-.8-1.17,11.75-8.86Z" transform="translate(-8.1 -11.23)"/><path class="cls-9" d="M31.56,144.24c-1.61.91-2.43,1.36-4.07,2.25l-.87-1.18c5.28-2.72,7.86-4.15,12.91-7.14l.9,1.2c-3.43,5.15-5.08,7.79-8.24,13.18l-.94-1.17c1-1.68,1.53-2.51,2.57-4.17C32.91,146,32.46,145.44,31.56,144.24Zm3.14,1.7c1-1.51,1.45-2.26,2.43-3.75.55-.85,1.1-1.57,1.62-2.28v0c-.72.49-1.46,1-2.23,1.44-1.47.86-2.21,1.29-3.69,2.12C33.57,144.46,33.94,145,34.7,145.94Z" transform="translate(-8.1 -11.23)"/><path class="cls-9" d="M43.15,155.52c1.24-1.65,2.74-3.63,3.91-5.05l0,0c-1.31,1.1-2.74,2.22-4.37,3.41-2.3,1.66-3.46,2.48-5.82,4.09l-.69-.79c1.39-2.64,2.1-4,3.55-6.54,1.08-1.91,2.11-3.62,3.12-5.12l0,0c-1.26,1.33-3,3.09-4.53,4.64-1.78,1.78-2.67,2.66-4.46,4.43l-.85-1c4.24-4,6.35-6.08,10.53-10.18l1,1.22c-1.5,2.61-2.24,3.93-3.67,6.59-.93,1.68-1.76,3.17-2.59,4.53l0,0c1.15-.92,2.44-1.87,3.94-2.95,2.31-1.64,3.45-2.48,5.7-4.18l1,1.15c-3.51,4.78-5.26,7.18-8.72,12l-.92-1C40.81,158.65,41.59,157.61,43.15,155.52Z" transform="translate(-8.1 -11.23)"/><path class="cls-9" d="M49.44,161.32c-1.11-1-1.66-1.58-2.74-2.67l-3.16,4.26c1.27,1.27,1.91,1.89,3.21,3.09l-.9,1.32c-1.71-1.58-2.56-2.4-4.22-4.09l8.91-11.73C51.92,153,52.61,153.66,54,155l-.9,1.31c-1.1-1.05-1.64-1.59-2.71-2.69l-2.78,3.73c1.07,1.09,1.6,1.62,2.69,2.65Z" transform="translate(-8.1 -11.23)"/><path class="cls-9" d="M48.28,166.43a4.13,4.13,0,0,0,1.24,2.36c1,.87,2.16.48,2.94-.79a3.64,3.64,0,0,0,.14-3.67,5.2,5.2,0,0,1,.4-5.17c1.27-1.91,3.07-2.52,4.38-1.38a3.46,3.46,0,0,1,1.13,1.9l-1,1.13a3.19,3.19,0,0,0-1-1.72c-.93-.81-1.94-.13-2.49.71-.75,1.15-.7,2.11-.12,3.63a5.46,5.46,0,0,1-.35,5.26c-1.17,1.95-3.1,2.94-4.94,1.37a4.54,4.54,0,0,1-1.46-2.52Z" transform="translate(-8.1 -11.23)"/><path class="cls-9" d="M62.37,162.33a7.94,7.94,0,0,1,1.92,1,3.21,3.21,0,0,1,1.58,2.46,5.61,5.61,0,0,1-.61,2.89c-.83,1.75-2,2.53-3.11,2.47l0,.06c.44.74.35,1.91-.12,3.4a30.19,30.19,0,0,0-1.08,4c-.46-.26-.69-.4-1.14-.67a24.1,24.1,0,0,1,1-3.51c.64-2,.57-2.92-.32-3.59l-1-.64-3,5.64c-.43-.29-.64-.44-1.06-.74C58.22,170,59.61,167.45,62.37,162.33Zm-2.2,6.6,1,.69c1.07.71,2.25.14,3-1.38.84-1.7.5-2.9-.48-3.58a2.91,2.91,0,0,0-1-.49Z" transform="translate(-8.1 -11.23)"/><path class="cls-9" d="M69.25,166.49c-2.38,5.38-3.57,8.08-6,13.46l-1.11-.61,6.1-13.4Z" transform="translate(-8.1 -11.23)"/><path class="cls-9" d="M67.22,181.88c1-6,1.6-9,2.93-14.91l1.07.54c-.64,2.92-.94,4.38-1.5,7.31-.38,2-.72,3.82-1.11,5.53h0c.87-1.48,1.9-3.05,3-4.69,1.61-2.49,2.39-3.74,3.92-6.27.44.17.66.26,1.11.42-3.1,5.14-4.72,7.67-8.12,12.62Z" transform="translate(-8.1 -11.23)"/><path class="cls-9" d="M79.53,178.94c-1.38-.39-2.06-.6-3.43-1l-1.65,5c1.6.52,2.4.76,4,1.22-.17.61-.26.92-.44,1.53-2.11-.6-3.17-.92-5.25-1.63l4.73-13.94c1.75.59,2.63.86,4.4,1.37-.17.61-.26.92-.44,1.53-1.37-.39-2-.6-3.41-1l-1.45,4.42c1.35.44,2,.64,3.38,1C79.79,178,79.7,178.34,79.53,178.94Z" transform="translate(-8.1 -11.23)"/><path class="cls-9" d="M83.4,172.11a7.56,7.56,0,0,1,2.13.23,2.7,2.7,0,0,1,2.13,1.73,5.28,5.28,0,0,1,.07,2.88c-.41,1.9-1.42,3-2.48,3.29l0,.07c.6.54.79,1.65.68,3.19a28.43,28.43,0,0,0-.13,4.1l-1.28-.27a24.76,24.76,0,0,1,.16-3.57c.18-2-.12-2.89-1.15-3.21l-1.09-.28c-.64,2.47-1,3.71-1.61,6.17-.49-.12-.73-.18-1.22-.32C81.12,180.52,81.88,177.72,83.4,172.11Zm-.62,6.77,1.17.29c1.22.3,2.24-.61,2.62-2.25.42-1.86-.19-2.85-1.32-3.14a2.87,2.87,0,0,0-1.12-.1Z" transform="translate(-8.1 -11.23)"/><path class="cls-9" d="M92.47,184.13c-.67,1.77-1,2.65-1.72,4.41l-1.28-.22c2.34-5.56,3.43-8.37,5.45-14l1.31.18c.35,6,.61,9,1.3,15l-1.33-.15c-.2-1.89-.28-2.83-.44-4.72C94.44,184.43,93.78,184.33,92.47,184.13Zm3.23-1c-.14-1.73-.2-2.59-.31-4.31-.06-1-.07-1.86-.07-2.73h0c-.25.85-.52,1.71-.82,2.57-.59,1.64-.9,2.45-1.52,4.08C94.05,182.87,94.6,183,95.7,183.09Z" transform="translate(-8.1 -11.23)"/><path class="cls-9" d="M99,189.6l1.4-14.65,1.19.11c.84,3.05,1.3,4.58,2.29,7.62.58,1.75,1,3.33,1.44,4.85l0,0c0-2,0-3.76.11-6,.11-2.46.16-3.69.26-6.15l1,0c-.18,5.88-.28,8.82-.46,14.7L105,190c-1.11-3-1.62-4.56-2.57-7.62a45,45,0,0,1-1.27-5l0,0c-.1,1.85-.22,3.61-.43,6.05s-.32,3.76-.53,6.26Z" transform="translate(-8.1 -11.23)"/><path class="cls-9" d="M115.79,189.31a6.19,6.19,0,0,1-3,.92,4,4,0,0,1-3.62-1.91,9.93,9.93,0,0,1-1.24-5.49c.08-4.38,1.88-7.54,4.72-7.62a3.56,3.56,0,0,1,2.15.6l-.2,1.56a3.08,3.08,0,0,0-1.93-.57c-2.09.06-3.47,2.27-3.5,5.95s1.43,6,3.67,5.9a2.78,2.78,0,0,0,1.64-.44c-.07-1.76-.11-2.63-.18-4.39-.75,0-1.12.05-1.87.06,0-.61,0-.91,0-1.52,1.2,0,1.8-.05,3-.11C115.57,185.07,115.65,186.48,115.79,189.31Z" transform="translate(-8.1 -11.23)"/><path class="cls-9" d="M116.74,175.17l1.09-.08c.42,5.23.62,7.85,1,13.08,1.63-.13,2.45-.2,4.08-.39l.18,1.58c-2.15.25-3.23.35-5.39.49Z" transform="translate(-8.1 -11.23)"/><path class="cls-9" d="M128.34,181.67c-1.41.23-2.11.34-3.52.53l.73,5.26c1.64-.23,2.47-.35,4.11-.64l.27,1.57c-2.16.37-3.24.54-5.41.81-.75-5.84-1.12-8.76-1.86-14.6,1.82-.22,2.73-.36,4.54-.67l.27,1.57c-1.4.24-2.1.35-3.51.54.26,1.84.39,2.76.64,4.61,1.39-.19,2.09-.3,3.47-.53C128.18,180.74,128.23,181.05,128.34,181.67Z" transform="translate(-8.1 -11.23)"/><path class="cls-9" d="M130.94,185.86a3.28,3.28,0,0,0,2.37.51c1.24-.25,1.74-1.42,1.41-2.87a3.13,3.13,0,0,0-2.34-2.49,4.39,4.39,0,0,1-3.15-3.63c-.42-2.25.34-4.12,2-4.46a2.76,2.76,0,0,1,2,.29c0,.63,0,.95.06,1.58a2.56,2.56,0,0,0-1.76-.33c-1.15.25-1.36,1.51-1.16,2.49a2.94,2.94,0,0,0,2.32,2.42,4.67,4.67,0,0,1,3.26,3.7c.53,2.21-.1,4.4-2.36,4.86a3.72,3.72,0,0,1-2.62-.45C130.93,186.83,130.94,186.51,130.94,185.86Z" transform="translate(-8.1 -11.23)"/><path class="cls-9" d="M141.67,180.91c.16,1.88.23,2.83.35,4.72l-1.26.35c-.29-6-.52-9-1.14-15l1.27-.4c2.92,5.25,4.46,7.85,7.69,12.93l-1.28.46c-1-1.62-1.48-2.43-2.45-4.06C143.58,180.33,143,180.53,141.67,180.91Zm2.48-2.33c-.88-1.49-1.31-2.25-2.16-3.76-.48-.85-.87-1.64-1.25-2.42h0c.14.87.27,1.77.37,2.67.17,1.73.25,2.6.39,4.33C142.55,179.1,143.09,178.93,144.15,178.58Z" transform="translate(-8.1 -11.23)"/><path class="cls-9" d="M149,180.89a3.09,3.09,0,0,0,2.39,0c1.17-.53,1.46-1.83.89-3.21a2.86,2.86,0,0,0-2.69-1.94,4.14,4.14,0,0,1-3.68-2.94c-.78-2.16-.34-4.16,1.16-4.89a2.66,2.66,0,0,1,2-.2c.13.63.2.95.32,1.58a2.41,2.41,0,0,0-1.75.1,2.07,2.07,0,0,0-.71,2.75,2.73,2.73,0,0,0,2.66,1.9,4.25,4.25,0,0,1,3.78,2.92c.88,2.09.66,4.47-1.46,5.43a3.53,3.53,0,0,1-2.64.1Z" transform="translate(-8.1 -11.23)"/><path class="cls-9" d="M155.33,177.8a3,3,0,0,0,2.36-.29,2.48,2.48,0,0,0,.66-3.38,2.66,2.66,0,0,0-2.78-1.66,3.81,3.81,0,0,1-3.82-2.54c-.92-2.1-.63-4.21.8-5.15a2.59,2.59,0,0,1,1.94-.46c.17.63.26,1,.42,1.58a2.32,2.32,0,0,0-1.72.32,2.28,2.28,0,0,0-.51,2.91,2.53,2.53,0,0,0,2.75,1.61,3.93,3.93,0,0,1,3.92,2.53c1,2,1,4.48-1.08,5.72a3.39,3.39,0,0,1-2.58.42C155.54,178.77,155.47,178.44,155.33,177.8Z" transform="translate(-8.1 -11.23)"/><path class="cls-9" d="M165.57,163.83c2.66,4.32,2.43,8.1.36,9.77s-5.07.11-7.1-3.86c-2.13-4.16-2.1-7.92-.25-9.49S163.28,160.11,165.57,163.83Zm-5.7,5.08c1.47,2.79,3.74,4.6,5.36,3.29s1.1-4.52-.62-7.38c-1.5-2.52-3.79-4.46-5.31-3.18S158.37,166.05,159.87,168.91Z" transform="translate(-8.1 -11.23)"/><path class="cls-9" d="M175.85,163.34a5.85,5.85,0,0,1-1.57,2.63c-2.14,2.17-5.2,1.46-7.77-2.63-2.46-3.9-2.69-7.9-.68-10.06a3.21,3.21,0,0,1,1.92-1.15l.7,1.48a2.92,2.92,0,0,0-1.68.94c-1.54,1.66-1.41,4.54.69,7.79,2,3,4.3,4,6.11,2.12a4.83,4.83,0,0,0,1.2-2.13Z" transform="translate(-8.1 -11.23)"/><path class="cls-9" d="M169.34,149.68c3.57,4.69,5.36,7,8.94,11.71l-.95,1.05c-3.52-4.72-5.28-7.09-8.81-11.81C168.85,150.26,169,150.07,169.34,149.68Z" transform="translate(-8.1 -11.23)"/><path class="cls-9" d="M178.14,154.58c.89,1.77,1.33,2.67,2.19,4.46-.38.45-.57.67-1,1.11-2.65-5.76-4.05-8.6-7-14.17l.95-1.2c4.66,3.4,7.05,5,12,8.18l-.95,1.22c-1.53-1-2.29-1.52-3.79-2.56C179.59,152.82,179.11,153.41,178.14,154.58Zm1.24-3.85c-1.37-.95-2-1.44-3.4-2.41-.76-.55-1.42-1.1-2.06-1.64l0,0c.47.78.95,1.59,1.4,2.44.84,1.61,1.26,2.43,2.08,4.06C178.19,152.23,178.59,151.73,179.38,150.73Z" transform="translate(-8.1 -11.23)"/><path class="cls-9" d="M177.78,141.48c-.72,1-1.09,1.48-1.82,2.46l-1.08-1.2c1.76-2.35,2.62-3.55,4.32-6l1.15,1.13c-.71,1-1.07,1.52-1.79,2.52l9.13,9.4-.88,1.17Z" transform="translate(-8.1 -11.23)"/><path class="cls-9" d="M180.56,134.78l10.76,10-.85,1.19-10.64-10.16Z" transform="translate(-8.1 -11.23)"/><path class="cls-9" d="M192.22,130.18c4,3.07,4.87,6.67,3.25,9.07s-5.12,2.17-8.42-.82c-3.47-3.13-4.63-6.81-3.17-9S188.75,127.53,192.22,130.18Zm-4.38,7c2.36,2.08,5.22,2.88,6.49,1s-.2-4.69-2.83-6.75c-2.3-1.8-5.27-2.81-6.46-1S185.42,135.05,187.84,137.19Z" transform="translate(-8.1 -11.23)"/><path class="cls-9" d="M199.22,133.16l-11.84-8.74.75-1.16c3.09.67,4.66,1,7.85,1.52,1.85.31,3.47.64,5,1v0c-1.72-1-3.23-1.91-5.15-3.17l-5.16-3.35c.25-.4.37-.6.63-1l12.42,7.88-.78,1.22c-3.25-.45-4.86-.71-8-1.3a39.51,39.51,0,0,1-5-1.23v0c1.55,1,3,2,5,3.46L200,132C199.66,132.48,199.52,132.71,199.22,133.16Z" transform="translate(-8.1 -11.23)"/><path class="cls-10" d="M54.39,49.83,43.33,71.17h3.25L43,76.92h3.08L46,79.47l4,0L49.42,81h2.33l.08,1.46h4l-.08-2,2.58-2.52a5.13,5.13,0,0,1,3.6-1.44l3.65,0-3.33-4.92h3.33Z" transform="translate(-8.1 -11.23)"/><path class="cls-10" d="M78.83,56.33l-8.75,18.2H72.5L70.42,78l2.5.75a4.53,4.53,0,0,1,2.33,1.63l.17.23H81V79.47l6.22-.55-1.68-4.43,2.76-.2Z" transform="translate(-8.1 -11.23)"/><polygon class="cls-10" points="122.47 65.49 139.07 65.49 135.65 60.86 139.07 60.86 130.82 45.11 123.24 60.77 126.82 61.11 122.47 65.49"/><polygon class="cls-10" points="141.91 64.79 145.07 59.36 141.49 59.36 154.24 32.52 167.07 59.02 163.24 59.19 169.07 65.99 141.91 64.79"/></g></svg>